<?xml version="1.0" encoding="UTF-8"?>
<svg width="44px" height="44px" viewBox="0 0 44 44" version="1.1" xmlns="http://www.w3.org/2000/svg" xmlns:xlink="http://www.w3.org/1999/xlink">
    <title>编组 2</title>
    <g id="页面-1" stroke="none" stroke-width="1" fill="none" fill-rule="evenodd">
        <g id="10.10弹窗" transform="translate(-526.000000, -464.000000)">
            <g id="编组-2" transform="translate(330.000000, 60.000000)">
                <g id="编组-2" transform="translate(196.000000, 404.000000)">
                    <circle id="椭圆形" fill="#24B36B" cx="22" cy="22" r="22"></circle>
                    <path d="M29.3163842,28.5846137 C29.6872469,28.9601832 30.3041015,29.5912973 30.2881732,30.320161 C30.2753311,30.8188349 29.9908127,31.3173449 29.4155376,31.8474991 C29.2716524,31.9863271 27.9961648,33.1634503 25.953533,33.1634503 C25.3940865,33.1634503 24.8186786,33.0750366 24.2465227,32.9046954 C23.6423112,32.7247889 23.0285427,32.4471328 22.4243644,32.0779511 C20.0396735,30.6830533 18.1952488,28.8907037 16.4467587,26.2589324 C13.438676,21.740141 13.3523648,17.8713651 13.3651738,17.1424031 C13.3715451,13.7753475 16.210191,12.4531396 16.5330699,12.3111012 C16.9773021,12.1059711 17.367345,12.0082215 17.7253656,12.0082215 C17.8980211,12.0082215 18.0609538,12.0303659 18.2144291,12.077701 C18.527751,12.1722732 18.9624926,12.4152714 19.2533822,13.040096 C19.6530153,13.8889847 20.0300834,15.103845 20.2858313,16.3756385 C20.5576402,17.6946689 19.8063579,18.0670282 19.0807267,18.4235326 L19.0519231,18.4362099 C19.0519231,18.4362099 17.7700974,18.9631538 17.5431199,19.0578242 C17.3226132,19.1493171 17.2042796,19.3955256 17.2810006,19.6226363 C17.7988678,21.1689084 18.5884111,22.7752258 19.5634189,24.2645319 C20.525651,25.7288109 21.6668435,27.07942 22.86561,28.1743862 C22.9518217,28.2501225 23.0605651,28.2942802 23.1787992,28.2942802 L23.2171597,28.291201 C23.3450834,28.2817339 23.4633175,28.2185439 23.5432906,28.117584 C23.7382457,27.8715065 24.0387254,27.514871 24.3520141,27.2150705 C24.9497216,26.653436 25.4932399,26.3820366 26.007855,26.3820366 C26.1484881,26.3820366 26.2891213,26.4009707 26.4234163,26.4419181 C26.5577114,26.4797863 26.7685947,26.590246 27.0020763,26.7449289 C27.0596171,26.782797 28.3350051,27.5906401 29.3163842,28.5846137 Z" id="路径" fill="#FFFFFF" fill-rule="nonzero" transform="translate(21.826384, 22.585836) rotate(-12.000000) translate(-21.826384, -22.585836) "></path>
                </g>
            </g>
        </g>
    </g>
</svg>