<?xml version="1.0" encoding="UTF-8"?>
<svg width="44px" height="44px" viewBox="0 0 44 44" version="1.1" xmlns="http://www.w3.org/2000/svg" xmlns:xlink="http://www.w3.org/1999/xlink">
    <title>编组 2</title>
    <defs>
        <circle id="path-1" cx="22" cy="22" r="22"></circle>
    </defs>
    <g id="页面-1" stroke="none" stroke-width="1" fill="none" fill-rule="evenodd">
        <g id="10.2-音频接听中" transform="translate(-458.000000, -396.000000)">
            <g id="编组-2" transform="translate(330.000000, 60.000000)">
                <g id="编组-2" transform="translate(128.000000, 336.000000)">
                    <g id="椭圆形">
                        <use fill="#DD514D" xlink:href="#path-1"></use>
                        <use fill-opacity="0.15" fill="#FFFFFF" xlink:href="#path-1"></use>
                    </g>
                    <path d="M29.7199192,29.0861961 C30.0907819,29.4617656 30.7076365,30.0928797 30.6917082,30.8217435 C30.6788661,31.3204173 30.3943478,31.8189273 29.8190726,32.3490815 C29.6751874,32.4879096 28.3996998,33.6650327 26.357068,33.6650327 C25.7976215,33.6650327 25.2222136,33.5766191 24.6500577,33.4062779 C24.0458462,33.2263714 23.4320777,32.9487152 22.8278994,32.5795335 C20.4432085,31.1846357 18.5987839,29.3922861 16.8502937,26.7605148 C13.842211,22.2417234 13.7558999,18.3729475 13.7687088,17.6439855 C13.7750801,14.2769299 16.6137261,12.954722 16.9366049,12.8126837 C17.3808371,12.6075536 17.77088,12.5098039 18.1289006,12.5098039 C18.3015561,12.5098039 18.4644888,12.5319483 18.6179641,12.5792835 C18.931286,12.6738556 19.3660276,12.9168538 19.6569172,13.5416784 C20.0565503,14.3905672 20.4336184,15.6054274 20.6893663,16.8772209 C20.9611752,18.1962513 20.2098929,18.5686106 19.4842617,18.925115 L19.4554581,18.9377924 C19.4554581,18.9377924 18.1736324,19.4647363 17.9466549,19.5594067 C17.7261482,19.6508995 17.6078146,19.8971081 17.6845357,20.1242187 C18.2024028,21.6704908 18.9919461,23.2768082 19.9669539,24.7661143 C20.929186,26.2303933 22.0703785,27.5810024 23.269145,28.6759687 C23.3553567,28.751705 23.4641001,28.7958626 23.5823342,28.7958626 L23.6206947,28.7927834 C23.7486185,28.7833164 23.8668525,28.7201263 23.9468256,28.6191664 C24.1417807,28.3730889 24.4422604,28.0164534 24.7555492,27.716653 C25.3532566,27.1550184 25.8967749,26.883619 26.41139,26.883619 C26.5520232,26.883619 26.6926563,26.9025531 26.8269513,26.9435005 C26.9612464,26.9813687 27.1721297,27.0918284 27.4056113,27.2465113 C27.4631521,27.2843794 28.7385401,28.0922225 29.7199192,29.0861961 Z" id="路径" fill="#FFFFFF" fill-rule="nonzero" transform="translate(22.229919, 23.087418) rotate(123.000000) translate(-22.229919, -23.087418) "></path>
                </g>
            </g>
        </g>
    </g>
</svg>