<?xml version="1.0" encoding="UTF-8"?>
<svg width="44px" height="44px" viewBox="0 0 44 44" version="1.1" xmlns="http://www.w3.org/2000/svg" xmlns:xlink="http://www.w3.org/1999/xlink">
    <title>关闭麦克风-64px</title>
    <g id="页面-1" stroke="none" stroke-width="1" fill="none" fill-rule="evenodd">
        <g id="10.6-视频接通中" transform="translate(-374.000000, -464.000000)" fill-rule="nonzero">
            <g id="编组-2" transform="translate(330.000000, 60.000000)">
                <g id="关闭麦克风-64px" transform="translate(44.000000, 404.000000)">
                    <circle id="椭圆形" fill="#000000" opacity="0.300000012" cx="22" cy="22" r="22"></circle>
                    <path d="M16.7516425,11.5953925 L28.4391425,31.8387363 C28.6289903,32.1675625 28.5163262,32.5880309 28.1875,32.7778787 C27.8586738,32.9677266 27.4382054,32.8550625 27.2483575,32.5262363 L15.5608575,12.2828925 C15.3710097,11.9540663 15.4836738,11.5335979 15.8125,11.34375 C16.1413262,11.1539021 16.5617946,11.2665663 16.7516425,11.5953925 Z M15.125,20.625 C15.5046958,20.625 15.8125,20.9328042 15.8125,21.3125 C15.8125,24.7297619 18.5827381,27.5 22,27.5 C22.2485281,27.5 22.493634,27.4853475 22.7345008,27.4568592 L23.469911,28.7322398 C23.2034706,28.7847246 22.9320067,28.8232158 22.6563164,28.8469158 L22.6555,30.9365 L24.7425,30.9365 L25.5330112,32.3059189 C25.5279174,32.3066268 25.5228058,32.307279 25.517677,32.3078747 L25.4375,32.3125 L18.5625,32.3125 C18.1828042,32.3125 17.875,32.0046958 17.875,31.625 C17.875,31.2724254 18.1404026,30.9818388 18.482323,30.9421253 L18.5625,30.9375 L21.6555,30.9365 L21.6560817,28.867319 C17.6390519,28.6875246 14.4375,25.3738936 14.4375,21.3125 C14.4375,20.9328042 14.7453042,20.625 15.125,20.625 Z M28.875,20.625 C29.2546958,20.625 29.5625,20.9328042 29.5625,21.3125 C29.5625,23.5006691 28.6331653,25.4717805 27.1476612,26.8526687 L26.4384601,25.6235647 C27.5209574,24.5092811 28.1875,22.9887302 28.1875,21.3125 C28.1875,20.9328042 28.4953042,20.625 28.875,20.625 Z M17.8745,19.0395 L21.553741,25.4136411 C19.4854537,25.1911491 17.875,23.4398954 17.875,21.3125 L17.8745,19.0395 Z M22,11.6875 C24.2781746,11.6875 26.125,13.5343254 26.125,15.8125 L26.125,21.3125 C26.125,22.2144748 25.8355053,23.0488346 25.3443623,23.7277326 L19.0871791,12.8916954 C19.8333395,12.1475618 20.8629432,11.6875 22,11.6875 Z" id="形状结合" fill="#FFFFFF"></path>
                </g>
            </g>
        </g>
    </g>
</svg>