<?xml version="1.0" encoding="UTF-8"?>
<svg width="44px" height="44px" viewBox="0 0 44 44" version="1.1" xmlns="http://www.w3.org/2000/svg" xmlns:xlink="http://www.w3.org/1999/xlink">
    <title>免提-64px备份</title>
    <g id="页面-1" stroke="none" stroke-width="1" fill="none" fill-rule="evenodd">
        <g id="10.1-音频主叫" transform="translate(-458.000000, -401.000000)" fill-rule="nonzero">
            <g id="编组-2" transform="translate(330.000000, 60.000000)">
                <g id="免提-64px备份" transform="translate(128.000000, 341.000000)">
                    <circle id="椭圆形" fill="#FFFFFF" cx="22" cy="22" r="22"></circle>
                    <path d="M16.7516425,11.5953925 L28.4391425,31.8387363 C28.6289903,32.1675625 28.5163262,32.5880309 28.1875,32.7778787 C27.8586738,32.9677266 27.4382054,32.8550625 27.2483575,32.5262363 L15.5608575,12.2828925 C15.3710097,11.9540663 15.4836738,11.5335979 15.8125,11.34375 C16.1413262,11.1539021 16.5617946,11.2665663 16.7516425,11.5953925 Z M29.3999422,14.0244633 C31.2693261,16.2402177 32.3125,19.0406159 32.3125,22 C32.3125,24.9579338 31.2703526,27.7570568 29.4026326,29.9723467 C29.3127311,30.0789782 29.1973298,30.151423 29.0729049,30.1882784 L28.401,29.024275 L28.5732608,28.8143043 C30.0941656,26.8901948 30.9375,24.510934 30.9375,22 C30.9375,19.3682088 30.0110237,16.881085 28.3490042,14.9111168 C28.1041616,14.6209083 28.1409379,14.1871637 28.4311464,13.9423211 C28.7213549,13.6974784 29.1550995,13.7342548 29.3999422,14.0244633 Z M17.229,17.923275 L21.999,26.184275 L22,28.0462318 C22,28.5985165 21.5522847,29.0462318 21,29.0462318 C20.7577769,29.0462318 20.5237869,28.9583135 20.3414954,28.7988085 L16.5,25.4375 L13.375,25.4375 C12.8227153,25.4375 12.375,24.9897847 12.375,24.4375 L12.375,19.5625 C12.375,19.0102153 12.8227153,18.5625 13.375,18.5625 L16.5,18.5625 L17.229,17.923275 Z M25.9730673,17.6795063 C26.9549843,18.8935935 27.5,20.4059756 27.5,22 C27.5,23.3116199 27.130994,24.5679706 26.4531931,25.6483558 L25.6457664,24.2494846 C25.9585737,23.5523009 26.125,22.7892475 26.125,22 C26.125,20.7235961 25.6897144,19.5157078 24.9039615,18.5441668 C24.6651921,18.2489414 24.7109588,17.816053 25.0061842,17.5772836 C25.3014096,17.3385143 25.7342979,17.3842809 25.9730673,17.6795063 Z M21.7525767,15.2952636 C21.9120818,15.4775551 22,15.7115451 22,15.9537682 L21.999,17.935275 L20.396,15.158275 L20.4410277,15.1244538 C20.85274,14.8461993 21.4168702,14.911599 21.7525767,15.2952636 Z" id="形状结合" fill="#333333"></path>
                </g>
            </g>
        </g>
    </g>
</svg>