<?xml version="1.0" encoding="UTF-8"?>
<svg width="16px" height="16px" viewBox="0 0 16 16" version="1.1" xmlns="http://www.w3.org/2000/svg" xmlns:xlink="http://www.w3.org/1999/xlink">
    <title>编组 4</title>
    <g id="页面-1" stroke="none" stroke-width="1" fill="none" fill-rule="evenodd">
        <g id="10.8视频被动" transform="translate(-602.000000, -70.000000)">
            <g id="编组-2" transform="translate(330.000000, 60.000000)">
                <g id="编组-4" transform="translate(272.000000, 10.000000)">
                    <rect id="矩形" x="0" y="0" width="16" height="16"></rect>
                    <path d="M11.5009387,1 C11.8598964,1 12.1019115,1.36702544 11.9605112,1.69695965 L11.9605112,1.69695965 L10.5779387,4.921 L14.3913731,9.68765248 C14.635818,9.9932087 14.44907,10.4360383 14.0822155,10.4937242 L14.0822155,10.4937242 L14.0009387,10.5 L8.5,10.5 L8.50093865,15 C8.50093865,15.2761424 8.27708103,15.5 8.00093865,15.5 C7.75547876,15.5 7.55133028,15.3231248 7.50899432,15.0898756 L7.50093865,15 L7.5,10.5 L2.00093865,10.5 C1.60963575,10.5 1.38050453,10.0775409 1.56463157,9.75503955 L1.61050425,9.68765248 L5.42293865,4.921 L4.04136614,1.69695965 C3.91084271,1.39240499 4.10701655,1.05624598 4.42029945,1.0063313 L4.42029945,1.0063313 L4.50093865,1 Z M10.7419387,2 L5.25893865,2 L6.46051117,4.80304035 C6.52105641,4.94431258 6.51269315,5.10380061 6.44154624,5.23638574 L6.44154624,5.23638574 L6.39137306,5.31234752 L3.04093865,9.5 L12.9599387,9.5 L9.61050425,5.31234752 C9.51448886,5.1923283 9.48003218,5.03638243 9.51325901,4.88962863 L9.51325901,4.88962863 L9.54136614,4.80304035 L10.7419387,2 Z" id="形状结合" fill="#FFFFFF" fill-rule="nonzero"></path>
                </g>
            </g>
        </g>
    </g>
</svg>