<?xml version="1.0" encoding="UTF-8"?>
<svg width="44px" height="44px" viewBox="0 0 44 44" version="1.1" xmlns="http://www.w3.org/2000/svg" xmlns:xlink="http://www.w3.org/1999/xlink">
    <title>免提-64px</title>
    <g id="页面-1" stroke="none" stroke-width="1" fill="none" fill-rule="evenodd">
        <g id="10.6-视频接通中" transform="translate(-542.000000, -464.000000)" fill-rule="nonzero">
            <g id="编组-2" transform="translate(330.000000, 60.000000)">
                <g id="免提-64px" transform="translate(212.000000, 404.000000)">
                    <circle id="椭圆形" fill="#000000" opacity="0.300000012" cx="22" cy="22" r="22"></circle>
                    <path d="M29.3999422,14.0244633 C31.2693261,16.2402177 32.3125,19.0406159 32.3125,22 C32.3125,24.9579338 31.2703526,27.7570568 29.4026326,29.9723467 C29.1578873,30.2626374 28.7241551,30.2995592 28.4338645,30.054814 C28.1435738,29.8100688 28.106652,29.3763365 28.3513972,29.0860459 C30.0119358,27.1164925 30.9375,24.6305023 30.9375,22 C30.9375,19.3682088 30.0110237,16.881085 28.3490042,14.9111168 C28.1041616,14.6209083 28.1409379,14.1871637 28.4311464,13.9423211 C28.7213549,13.6974784 29.1550995,13.7342548 29.3999422,14.0244633 Z M21.7525767,15.2952636 C21.9120818,15.4775551 22,15.7115451 22,15.9537682 L22,28.0462318 C22,28.5985165 21.5522847,29.0462318 21,29.0462318 C20.7577769,29.0462318 20.5237869,28.9583135 20.3414954,28.7988085 L16.5,25.4375 L13.375,25.4375 C12.8227153,25.4375 12.375,24.9897847 12.375,24.4375 L12.375,19.5625 C12.375,19.0102153 12.8227153,18.5625 13.375,18.5625 L16.5,18.5625 L20.3414954,15.2011915 C20.757132,14.8375095 21.3888946,14.879627 21.7525767,15.2952636 Z M25.9730673,17.6795063 C26.9549843,18.8935935 27.5,20.4059756 27.5,22 C27.5,23.593206 26.9555459,25.1048644 25.9745492,26.3186608 C25.7358806,26.6139677 25.3030079,26.6598821 25.007701,26.4212135 C24.7123941,26.1825449 24.6664797,25.7496722 24.9051483,25.4543653 C25.6901632,24.4830589 26.125,23.2757494 26.125,22 C26.125,20.7235961 25.6897144,19.5157078 24.9039615,18.5441668 C24.6651921,18.2489414 24.7109588,17.816053 25.0061842,17.5772836 C25.3014096,17.3385143 25.7342979,17.3842809 25.9730673,17.6795063 Z" id="形状结合" fill="#FFFFFF"></path>
                </g>
            </g>
        </g>
    </g>
</svg>