<?xml version="1.0" encoding="UTF-8"?>
<svg width="40px" height="40px" viewBox="0 0 40 40" version="1.1" xmlns="http://www.w3.org/2000/svg" xmlns:xlink="http://www.w3.org/1999/xlink">
    <title>头像加载-40px</title>
    <g id="页面-1" stroke="none" stroke-width="1" fill="none" fill-rule="evenodd">
        <g id="0.图标" transform="translate(-838.000000, -1658.000000)">
            <g id="头像加载-40px" transform="translate(838.000000, 1658.000000)">
                <rect id="矩形" fill="#657380" opacity="0.5" x="0" y="0" width="40" height="40" rx="4"></rect>
                <path d="M20,22.0625 C28.4194765,22.0625 31.28125,25.6019013 31.28125,30.96875 C31.28125,32.6127331 27.3780528,32.7398015 21.7409716,32.7493182 L21.056338,32.7499855 C20.9408916,32.7500325 20.8247863,32.7500549 20.7080396,32.7500639 L19.2919604,32.7500639 C19.1752137,32.7500549 19.0591084,32.7500325 18.943662,32.7499855 L18.2590284,32.7493182 C12.6219472,32.7398015 8.71875,32.6127331 8.71875,30.96875 C8.71875,25.6008942 11.5805235,22.0625 20,22.0625 Z M20,7 C23.6071098,7 26.53125,9.92414023 26.53125,13.53125 C26.53125,17.1383598 23.6071098,20.0625 20,20.0625 C16.3928902,20.0625 13.46875,17.1383598 13.46875,13.53125 C13.46875,9.92414023 16.3928902,7 20,7 Z" id="形状结合" fill="#FFFFFF" fill-rule="nonzero"></path>
            </g>
        </g>
    </g>
</svg>