<?xml version="1.0" encoding="UTF-8"?>
<svg width="20px" height="20px" viewBox="0 0 20 20" version="1.1" xmlns="http://www.w3.org/2000/svg" xmlns:xlink="http://www.w3.org/1999/xlink">
    <title>语音消息-20px</title>
    <defs>
        <rect id="path-1" x="0" y="0" width="20" height="20"></rect>
    </defs>
    <g id="页面-1" stroke="none" stroke-width="1" fill="none" fill-rule="evenodd">
        <g id="10.9-通话结束" transform="translate(-767.000000, -210.000000)">
            <g id="编组" transform="translate(344.000000, 0.000000)">
                <g id="聊天区" transform="translate(0.000000, 56.000000)">
                    <g id="语音" transform="translate(411.000000, 144.000000)">
                        <g transform="translate(12.000000, 10.000000)" id="语音消息-20px">
                            <mask id="mask-2" fill="white">
                                <use xlink:href="#path-1"></use>
                            </mask>
                            <g id="矩形"></g>
                            <path d="M15.3107438,14.2534008 C15.573702,14.5196963 16.0110794,14.9671844 15.9997855,15.4839812 C15.9906799,15.8375632 15.7889437,16.191029 15.381048,16.566932 C15.279027,16.6653673 14.3746494,17.5 12.9263325,17.5 C12.52966,17.5 12.1216701,17.4373108 11.715986,17.3165313 C11.2875732,17.1889696 10.852384,16.992099 10.4239946,16.7303327 C8.73314249,15.741288 7.42536321,14.4704323 6.18560577,12.6043891 C4.0527411,9.40036466 3.99154262,6.65723012 4.00062475,6.14036358 C4.00514228,3.7529711 6.01786876,2.81546674 6.24680425,2.71475523 C6.56178466,2.56930885 6.8383425,2.5 7.09219502,2.5 C7.21461551,2.5 7.33014205,2.51570133 7.43896287,2.5492641 C7.66112206,2.61631994 7.96937323,2.78861653 8.17562693,3.231645 C8.4589846,3.83354496 8.72634266,4.694935 8.90767933,5.59669327 C9.10040396,6.53194463 8.56771131,6.79596395 8.05320644,7.04874149 L8.03278342,7.05773027 C8.03278342,7.05773027 7.12391188,7.43135699 6.9629747,7.49848251 C6.80662564,7.56335504 6.72272184,7.73792786 6.77712049,7.89895944 C7.14431137,8.99533528 7.70413276,10.1342859 8.39545676,11.1902703 C9.07772217,12.2285094 9.88687854,13.1861514 10.7368574,13.9625313 C10.7979853,14.0162317 10.8750893,14.0475414 10.9589225,14.0475414 L10.9861218,14.0453581 C11.0768255,14.0386456 11.1606587,13.993841 11.2173631,13.9222559 C11.355595,13.747776 11.5686485,13.4949056 11.7907842,13.2823337 C12.2145854,12.8841098 12.5999641,12.6916755 12.9648491,12.6916755 C13.0645643,12.6916755 13.1642795,12.7051006 13.2595007,12.7341341 C13.3547218,12.7609844 13.5042475,12.8393052 13.6697963,12.9489823 C13.7105953,12.9758325 14.6149023,13.5486292 15.3107438,14.2534008 Z" id="路径" fill="#FFFFFF" fill-rule="nonzero" mask="url(#mask-2)"></path>
                        </g>
                    </g>
                </g>
            </g>
        </g>
    </g>
</svg>